<svg width="16" height="16" viewBox="0 0 16 16" fill="none" xmlns="http://www.w3.org/2000/svg">
<path d="M7.72182 2.77279C7.91308 2.43347 8.40171 2.43346 8.59297 2.77279L10.2669 5.74256C10.3382 5.86915 10.4611 5.95844 10.6035 5.98718L13.9452 6.66143C14.327 6.73847 14.478 7.20319 14.2144 7.48994L11.9073 9.99962C11.8089 10.1066 11.762 10.2511 11.7787 10.3954L12.17 13.7819C12.2148 14.1688 11.8195 14.456 11.4653 14.2939L8.36548 12.8752C8.23335 12.8148 8.08144 12.8148 7.94931 12.8752L4.84952 14.2939C4.49534 14.456 4.10003 14.1688 4.14474 13.7819L4.53613 10.3954C4.55281 10.2511 4.50587 10.1066 4.40753 9.99962L2.10036 7.48994C1.83675 7.20319 1.98775 6.73847 2.36956 6.66143L5.71125 5.98718C5.85369 5.95844 5.97658 5.86915 6.04793 5.74256L7.72182 2.77279Z" stroke="#A273FE" stroke-width="1.5"/>
</svg>
