<svg width="16" height="16" viewBox="0 0 16 16" fill="none" xmlns="http://www.w3.org/2000/svg">
<path d="M4.1931 3.64367C4.09686 3.32287 4.33708 3 4.67202 3H11.328C11.6629 3 11.9031 3.32287 11.8069 3.64367L9.28735 12.0422C9.1168 12.6107 8.59353 13 8 13V13C7.40647 13 6.8832 12.6107 6.71265 12.0422L4.1931 3.64367Z" fill="#FF395E"/>
<path d="M6.33333 5H5C3.89543 5 3 5.89543 3 7V7C3 8.10457 3.89543 9 5 9H7" stroke="#FF395E"/>
<path d="M9.66667 5H11C12.1046 5 13 5.89543 13 7V7C13 8.10457 12.1046 9 11 9H9" stroke="#FF395E"/>
<path d="M5 12H11V14H5V12Z" fill="#FF395E"/>
</svg>
