<svg width="24" height="24" viewBox="0 0 24 24" fill="none" xmlns="http://www.w3.org/2000/svg">
<path d="M3.59961 18.4004V15.8587H5.59961V7.64125C5.59961 7.0718 5.79753 6.58916 6.19336 6.19333C6.58919 5.7975 7.07183 5.59958 7.64128 5.59958H19.4004V7.64125H7.64128V15.8587H11.8588V18.4004H3.59961ZM14.8854 18.4004C14.6025 18.4004 14.3607 18.3011 14.1598 18.1025C13.9591 17.9039 13.8588 17.6631 13.8588 17.38V10.1681C13.8588 9.8852 13.958 9.64333 14.1565 9.44249C14.3551 9.24166 14.5959 9.14125 14.8788 9.14125H19.3736C19.6565 9.14125 19.8984 9.24055 20.0992 9.43916C20.3 9.63777 20.4004 9.87861 20.4004 10.1617V17.3735C20.4004 17.6565 20.3011 17.8983 20.1025 18.0992C19.9041 18.3 19.6634 18.4004 19.3804 18.4004H14.8854ZM15.6648 15.8587H18.5942V10.9475H15.6648V15.8587Z" fill="#1C384A" fill-opacity="0.55"/>
</svg>
