<svg width="20" height="20" viewBox="0 0 20 20" fill="none" xmlns="http://www.w3.org/2000/svg">
<path d="M4.50002 17.4004C3.71016 17.4004 3.13905 17.0426 2.78669 16.3271C2.43433 15.6114 2.50752 14.9477 3.00627 14.336L7.0996 9.35874V4.77082H6.71898C6.43717 4.77082 6.19585 4.67186 5.99502 4.47395C5.79419 4.27617 5.69377 4.03631 5.69377 3.75437C5.69377 3.47242 5.79315 3.2311 5.9919 3.03041C6.19065 2.82957 6.43155 2.72916 6.7146 2.72916H13.2854C13.5685 2.72916 13.8094 2.82811 14.0081 3.02603C14.2069 3.22381 14.3063 3.46367 14.3063 3.74561C14.3063 4.02756 14.2069 4.26888 14.0081 4.46957C13.8094 4.67041 13.5685 4.77082 13.2854 4.77082H12.9004V9.35874L16.9942 14.3317C17.5065 14.9462 17.5865 15.6114 17.2342 16.3271C16.8818 17.0426 16.3038 17.4004 15.5 17.4004H4.50002ZM6.93127 14.3587H13.0688L10.7211 11.4746H9.27898L6.93127 14.3587ZM4.80627 15.3587H15.1938L10.8588 10.0589V4.77082H9.14127V10.0589L4.80627 15.3587Z" fill="#1C384A" fill-opacity="0.55"/>
</svg>
