<svg width="20" height="20" viewBox="0 0 20 20" fill="none" xmlns="http://www.w3.org/2000/svg">
<path d="M9.19753 15.5H10.7817V14.5915C11.4466 14.4803 12.0052 14.1887 12.4575 13.7165C12.9097 13.2442 13.1359 12.6721 13.1359 12C13.1359 11.3514 12.941 10.7951 12.5513 10.331C12.1614 9.86701 11.5589 9.48916 10.7438 9.19749C9.90433 8.89194 9.35704 8.63152 9.1019 8.41624C8.84676 8.20097 8.71919 7.93145 8.71919 7.6077C8.71919 7.37715 8.83093 7.18527 9.0544 7.03208C9.27787 6.87902 9.54871 6.8025 9.8669 6.8025C10.2401 6.8025 10.5784 6.89625 10.8819 7.08375C11.1852 7.27125 11.3855 7.53652 11.4827 7.87958L12.8769 7.28812C12.6945 6.76687 12.4252 6.34805 12.0688 6.03166C11.7125 5.71527 11.2835 5.50756 10.7817 5.40854V4.5H9.21836V5.42937C8.56197 5.58395 8.05412 5.86701 7.69482 6.27854C7.33551 6.69006 7.15586 7.15972 7.15586 7.6875C7.15586 8.34388 7.38141 8.90263 7.83253 9.36374C8.2835 9.82472 9.01836 10.2306 10.0371 10.5815C10.56 10.7566 10.9502 10.9613 11.2075 11.1956C11.4647 11.4299 11.5934 11.6981 11.5934 12C11.5934 12.3297 11.4671 12.6083 11.2146 12.8356C10.9622 13.063 10.6129 13.1767 10.1667 13.1767C9.70836 13.1767 9.30996 13.0258 8.97148 12.7242C8.63301 12.4225 8.40523 12.0129 8.28815 11.4954L6.83148 12.1077C6.98246 12.746 7.28197 13.2819 7.73003 13.7152C8.17808 14.1484 8.66725 14.4335 9.19753 14.5706V15.5ZM10 18.4004C8.84003 18.4004 7.75037 18.1823 6.73107 17.746C5.71176 17.3096 4.81982 16.7092 4.05523 15.9448C3.29079 15.1802 2.69037 14.2883 2.25398 13.269C1.81773 12.2496 1.59961 11.16 1.59961 10C1.59961 8.82611 1.81773 7.73298 2.25398 6.72062C2.69037 5.70826 3.29079 4.81979 4.05523 4.0552C4.81982 3.29076 5.71176 2.69034 6.73107 2.25395C7.75037 1.8177 8.84003 1.59958 10 1.59958C11.1739 1.59958 12.267 1.8177 13.2794 2.25395C14.2918 2.69034 15.1802 3.29076 15.9448 4.0552C16.7093 4.81979 17.3097 5.70826 17.7461 6.72062C18.1823 7.73298 18.4004 8.82611 18.4004 10C18.4004 11.16 18.1823 12.2496 17.7461 13.269C17.3097 14.2883 16.7093 15.1802 15.9448 15.9448C15.1802 16.7092 14.2918 17.3096 13.2794 17.746C12.267 18.1823 11.1739 18.4004 10 18.4004ZM10 16.3587C11.7742 16.3587 13.2775 15.7425 14.51 14.51C15.7425 13.2775 16.3588 11.7742 16.3588 10C16.3588 8.22583 15.7425 6.7225 14.51 5.49C13.2775 4.2575 11.7742 3.64125 10 3.64125C8.22586 3.64125 6.72253 4.2575 5.49003 5.49C4.25753 6.7225 3.64128 8.22583 3.64128 10C3.64128 11.7742 4.25753 13.2775 5.49003 14.51C6.72253 15.7425 8.22586 16.3587 10 16.3587Z" fill="#1C384A" fill-opacity="0.55"/>
</svg>
