<svg width="16" height="16" viewBox="0 0 16 16" fill="none" xmlns="http://www.w3.org/2000/svg">
<path fill-rule="evenodd" clip-rule="evenodd" d="M13.5 7C13.5 10.0376 11.0376 12.5 8 12.5C4.96243 12.5 2.5 10.0376 2.5 7C2.5 3.96243 4.96243 1.5 8 1.5C11.0376 1.5 13.5 3.96243 13.5 7ZM15 7C15 10.866 11.866 14 8 14C4.13401 14 1 10.866 1 7C1 3.13401 4.13401 0 8 0C11.866 0 15 3.13401 15 7ZM6.45918 9.92289C6.80612 9.98817 7.20068 10.0273 7.64286 10.0404V11H8.32653V10.0208C9.05442 9.95553 9.59864 9.76295 9.95918 9.44308C10.3197 9.12322 10.5 8.72501 10.5 8.24847C10.5 7.86332 10.3946 7.55324 10.1837 7.31824C9.97959 7.08323 9.71088 6.89066 9.37755 6.74051C9.04422 6.58384 8.69388 6.44023 8.32653 6.30967V4.89963C8.56463 4.91922 8.81973 4.95838 9.09184 5.01714C9.37075 5.07589 9.64626 5.16075 9.91837 5.27173L10.3878 4.15545C10.068 4.01836 9.7381 3.91391 9.39796 3.84211C9.06463 3.7703 8.70748 3.72787 8.32653 3.71481V3H7.64286V3.73439C7.22109 3.76703 6.84694 3.85516 6.52041 3.99878C6.20068 4.14239 5.94898 4.33497 5.76531 4.5765C5.58844 4.81151 5.5 5.09221 5.5 5.4186C5.5 5.66014 5.53742 5.87556 5.61225 6.06487C5.68708 6.24765 5.80612 6.41738 5.96939 6.57405C6.13946 6.72419 6.36054 6.86781 6.63265 7.0049C6.91156 7.14198 7.2483 7.2856 7.64286 7.43574V8.91432C7.28912 8.89474 6.91497 8.83272 6.52041 8.72827C6.12585 8.6173 5.78912 8.49653 5.5102 8.36597V9.62913C5.79592 9.75316 6.11225 9.85108 6.45918 9.92289ZM8.83673 8.68911C8.72789 8.7805 8.55782 8.84578 8.32653 8.88495V7.69033C8.47619 7.75561 8.59864 7.82089 8.69388 7.88617C8.79592 7.94492 8.87075 8.0102 8.91837 8.08201C8.97279 8.14729 9 8.22562 9 8.31701C9 8.46716 8.94558 8.59119 8.83673 8.68911ZM7.29592 5.01714C7.39116 4.97144 7.5068 4.9388 7.64286 4.91922V6.04529C7.4932 5.98001 7.37075 5.91799 7.27551 5.85924C7.18027 5.79396 7.10884 5.72868 7.06122 5.6634C7.02041 5.5916 7 5.51 7 5.4186C7 5.32721 7.02381 5.24888 7.07143 5.1836C7.12585 5.11179 7.20068 5.0563 7.29592 5.01714Z" fill="#379D7B"/>
</svg>
