<svg width="20" height="20" viewBox="0 0 20 20" fill="none" xmlns="http://www.w3.org/2000/svg">
<path d="M3.42211 8.57062C3.44864 7.88465 3.4385 7.34388 3.39169 6.94833C3.34489 6.55277 3.15905 6.12854 2.83419 5.67562C2.45072 5.15215 2.20086 4.66881 2.08461 4.22562C1.96836 3.78229 1.95885 3.24027 2.05607 2.59958H4.00357C3.93593 3.125 3.94517 3.55992 4.03128 3.90437C4.11739 4.24895 4.31892 4.6477 4.63586 5.10062C4.98003 5.57701 5.21023 6.08847 5.32648 6.63499C5.44273 7.18152 5.45711 7.82673 5.36961 8.57062H3.42211ZM6.65753 8.57062C6.68419 7.88465 6.67565 7.34388 6.6319 6.94833C6.58801 6.55277 6.40364 6.12854 6.07878 5.67562C5.6953 5.15215 5.44746 4.66881 5.33523 4.22562C5.22287 3.78229 5.2153 3.24027 5.31253 2.59958H7.26003C7.19239 3.125 7.20155 3.55992 7.28753 3.90437C7.37364 4.24895 7.57523 4.6477 7.89232 5.10062C8.23648 5.57701 8.46669 6.08847 8.58294 6.63499C8.69919 7.18152 8.7135 7.82673 8.62586 8.57062H6.65753ZM10.0109 8.57062C10.0374 7.88465 10.0253 7.34388 9.97461 6.94833C9.92392 6.55277 9.73614 6.12854 9.41128 5.67562C9.0278 5.15215 8.78336 4.66881 8.67794 4.22562C8.57267 3.78229 8.56864 3.24027 8.66586 2.59958H10.6134C10.5457 3.125 10.5514 3.55992 10.6304 3.90437C10.7096 4.24895 10.9077 4.6477 11.2246 5.10062C11.5689 5.57701 11.8027 6.08847 11.9259 6.63499C12.0491 7.18152 12.0668 7.82673 11.9792 8.57062H10.0109ZM4.25003 16.4004C3.51516 16.4004 2.88968 16.1424 2.37357 15.6265C1.8576 15.1103 1.59961 14.4849 1.59961 13.75V10.0706H13.0127C13.1788 9.59354 13.4346 9.18034 13.78 8.83104C14.1253 8.48173 14.5404 8.23187 15.0254 8.08145L18.9565 6.96458L19.5382 8.94104L15.7338 10.0227C15.4946 10.0958 15.2959 10.2336 15.1377 10.4362C14.9795 10.6387 14.9004 10.8705 14.9004 11.1315V13.75C14.9004 14.4849 14.6425 15.1103 14.1265 15.6265C13.6104 16.1424 12.9849 16.4004 12.25 16.4004H4.25003ZM4.25003 14.3587H12.25C12.4113 14.3587 12.553 14.2976 12.6752 14.1752C12.7976 14.053 12.8588 13.9112 12.8588 13.75V12.1123H3.64128V13.75C3.64128 13.9112 3.70246 14.053 3.82482 14.1752C3.94704 14.2976 4.08878 14.3587 4.25003 14.3587Z" fill="#1C384A" fill-opacity="0.55"/>
</svg>
