<svg width="20" height="20" viewBox="0 0 20 20" fill="none" xmlns="http://www.w3.org/2000/svg">
<path d="M10 12.8033C11.2627 11.8004 12.1861 10.8543 12.7704 9.965C13.3546 9.07583 13.6467 8.20437 13.6467 7.35062C13.6467 6.26451 13.3086 5.37479 12.6323 4.68145C11.9559 3.98798 11.0785 3.64125 10 3.64125C8.92155 3.64125 8.04412 3.98895 7.36773 4.68437C6.69148 5.37965 6.35336 6.2652 6.35336 7.34104C6.35336 8.18729 6.64544 9.05152 7.22961 9.93375C7.81391 10.8161 8.73739 11.7726 10 12.8033ZM10 15.3704C8.02114 13.9362 6.57836 12.575 5.67169 11.2867C4.76503 9.99833 4.31169 8.68354 4.31169 7.34229C4.31169 5.66409 4.84211 4.28743 5.90294 3.21229C6.96391 2.13715 8.33003 1.59958 10.0013 1.59958C11.6725 1.59958 13.0382 2.13715 14.0984 3.21229C15.1584 4.28743 15.6884 5.66409 15.6884 7.34229C15.6884 8.68354 15.235 9.99833 14.3284 11.2867C13.4217 12.575 11.9789 13.9362 10 15.3704ZM10.0044 9.02354C10.4888 9.02354 10.8985 8.85465 11.2334 8.51687C11.5681 8.17909 11.7354 7.76798 11.7354 7.28354C11.7354 6.79923 11.5666 6.38965 11.2288 6.05479C10.891 5.71993 10.48 5.5525 9.99565 5.5525C9.51121 5.5525 9.10155 5.72138 8.76669 6.05916C8.43197 6.39694 8.26461 6.80805 8.26461 7.29249C8.26461 7.7768 8.4335 8.18638 8.77128 8.52125C9.10905 8.85611 9.5201 9.02354 10.0044 9.02354ZM4.09961 18.4004V16.3704H15.9004V18.4004H4.09961Z" fill="#1C384A" fill-opacity="0.55"/>
</svg>
