<svg width="20" height="20" viewBox="0 0 20 20" fill="none" xmlns="http://www.w3.org/2000/svg">
<path d="M5.67668 19.365C5.10709 19.365 4.62445 19.1671 4.22876 18.7713C3.83293 18.3756 3.63501 17.8929 3.63501 17.3233V2.67668C3.63501 2.10709 3.83293 1.62445 4.22876 1.22876C4.62445 0.832926 5.10709 0.63501 5.67668 0.63501H14.3233C14.8929 0.63501 15.3756 0.832926 15.7713 1.22876C16.1671 1.62445 16.365 2.10709 16.365 2.67668V17.3233C16.365 17.8929 16.1671 18.3756 15.7713 18.7713C15.3756 19.1671 14.8929 19.365 14.3233 19.365H5.67668ZM5.67668 16.3233V17.3233H14.3233V16.3233H5.67668ZM5.67668 14.8233H14.3233V5.17668H5.67668V14.8233ZM5.67668 3.67668H14.3233V2.67668H5.67668V3.67668Z" fill="#1C384A" fill-opacity="0.55"/>
</svg>
