<svg width="20" height="20" viewBox="0 0 20 20" fill="none" xmlns="http://www.w3.org/2000/svg">
<path d="M4.58336 16.3958C3.93905 15.7515 3.44732 15.0148 3.10815 14.1856C2.76912 13.3566 2.59961 12.5051 2.59961 11.6313C2.59961 10.6554 2.77114 9.72577 3.11419 8.8423C3.45711 7.95897 3.94593 7.18605 4.58065 6.52355C5.16885 5.90758 5.8376 5.42265 6.5869 5.06876C7.33635 4.71487 8.18176 4.46251 9.12315 4.31168C10.0647 4.16071 11.1192 4.08848 12.2867 4.09501C13.4543 4.10168 14.7513 4.15668 16.1775 4.26001C16.3164 5.8632 16.4105 7.27591 16.4598 8.49814C16.509 9.72036 16.4735 10.8061 16.3534 11.7554C16.2332 12.7047 16.012 13.5461 15.6898 14.2794C15.3676 15.0129 14.9016 15.6845 14.2917 16.2944C13.645 16.9629 12.9093 17.477 12.0846 17.8369C11.26 18.1969 10.4182 18.3769 9.55898 18.3769C8.6151 18.3769 7.72419 18.2211 6.88628 17.9094C6.0485 17.5979 5.28086 17.0933 4.58336 16.3958ZM7.07065 15.7338C7.46746 15.9421 7.87419 16.0979 8.29086 16.2011C8.70753 16.3044 9.12982 16.3491 9.55773 16.3352C10.1591 16.3213 10.7329 16.1879 11.2792 15.9348C11.8256 15.6817 12.3539 15.314 12.8642 14.8315C13.3117 14.398 13.6515 13.8724 13.8836 13.2546C14.1158 12.6368 14.2772 11.9491 14.3677 11.1915C14.4583 10.434 14.4894 9.62862 14.4611 8.77543C14.4327 7.92209 14.3778 7.05793 14.2963 6.18293C13.2799 6.0839 12.3406 6.05223 11.4784 6.08793C10.616 6.12348 9.8385 6.21619 9.14586 6.36605C8.45322 6.51577 7.8528 6.72064 7.34461 6.98064C6.83655 7.2405 6.42065 7.54619 6.0969 7.89772C5.66398 8.3723 5.31315 8.92515 5.0444 9.55626C4.77565 10.1872 4.64128 10.813 4.64128 11.4336C4.64128 12.0262 4.73169 12.5954 4.91253 13.1413C5.0935 13.6872 5.38537 14.1993 5.78815 14.6775C6.27482 13.6014 6.94843 12.6336 7.80898 11.774C8.6694 10.9144 9.73308 10.1486 11 9.47647C9.94808 10.4348 9.11398 11.4294 8.49773 12.4602C7.88148 13.4909 7.40579 14.5821 7.07065 15.7338Z" fill="#1C384A" fill-opacity="0.55"/>
</svg>
