<svg width="20" height="20" viewBox="0 0 20 20" fill="none" xmlns="http://www.w3.org/2000/svg">
<path d="M0.63501 17.5771V15.9004H19.365V17.5771H0.63501ZM3.64126 14.9004C3.07182 14.9004 2.58918 14.7025 2.19334 14.3067C1.79751 13.9108 1.59959 13.4282 1.59959 12.8587V4.64125C1.59959 4.0718 1.79751 3.58916 2.19334 3.19333C2.58918 2.7975 3.07182 2.59958 3.64126 2.59958H16.3588C16.9282 2.59958 17.4108 2.7975 17.8067 3.19333C18.2025 3.58916 18.4004 4.0718 18.4004 4.64125V12.8587C18.4004 13.4282 18.2025 13.9108 17.8067 14.3067C17.4108 14.7025 16.9282 14.9004 16.3588 14.9004H3.64126ZM3.64126 12.8587H16.3588V4.64125H3.64126V12.8587Z" fill="#1C384A" fill-opacity="0.55"/>
</svg>
