<svg width="20" height="20" viewBox="0 0 20 20" fill="none" xmlns="http://www.w3.org/2000/svg">
<path d="M4.64128 18.4004C4.07183 18.4004 3.58919 18.2001 3.19336 17.7994C2.79753 17.3987 2.59961 16.9185 2.59961 16.3587V5.64125C2.59961 5.08152 2.79753 4.60131 3.19336 4.20062C3.58919 3.79993 4.07183 3.59958 4.64128 3.59958H6.00003V1.59958H7.77086V3.59958H12.2292V1.59958H14V3.59958H15.3588C15.9282 3.59958 16.4109 3.79993 16.8067 4.20062C17.2025 4.60131 17.4004 5.08152 17.4004 5.64125V16.3587C17.4004 16.9185 17.2025 17.3987 16.8067 17.7994C16.4109 18.2001 15.9282 18.4004 15.3588 18.4004H4.64128ZM4.64128 16.3587H15.3588V9H4.64128V16.3587ZM4.64128 7.5H15.3588V5.64125H4.64128V7.5ZM10.0044 12.0942C9.76648 12.0942 9.56558 12.0137 9.40169 11.8527C9.2378 11.6917 9.15586 11.4923 9.15586 11.2544C9.15586 11.0165 9.23635 10.8156 9.39732 10.6517C9.55829 10.4878 9.75773 10.4058 9.99565 10.4058C10.2336 10.4058 10.4345 10.4863 10.5984 10.6473C10.7622 10.8083 10.8442 11.0077 10.8442 11.2456C10.8442 11.4835 10.7637 11.6844 10.6027 11.8483C10.4418 12.0122 10.2423 12.0942 10.0044 12.0942ZM6.7544 12.0942C6.51648 12.0942 6.31558 12.0137 6.15169 11.8527C5.9878 11.6917 5.90586 11.4923 5.90586 11.2544C5.90586 11.0165 5.98635 10.8156 6.14732 10.6517C6.30829 10.4878 6.50773 10.4058 6.74565 10.4058C6.98357 10.4058 7.18447 10.4863 7.34836 10.6473C7.51225 10.8083 7.59419 11.0077 7.59419 11.2456C7.59419 11.4835 7.51371 11.6844 7.35273 11.8483C7.19176 12.0122 6.99232 12.0942 6.7544 12.0942ZM13.2544 12.0942C13.0275 12.0942 12.8293 12.0137 12.6598 11.8527C12.4905 11.6917 12.4059 11.4923 12.4059 11.2544C12.4059 11.0165 12.4891 10.8156 12.6554 10.6517C12.822 10.4878 13.0207 10.4058 13.2515 10.4058C13.4825 10.4058 13.6807 10.4863 13.8461 10.6473C14.0115 10.8083 14.0942 11.0077 14.0942 11.2456C14.0942 11.4835 14.0137 11.6844 13.8527 11.8483C13.6918 12.0122 13.4923 12.0942 13.2544 12.0942ZM10.0044 15.0942C9.76648 15.0942 9.56558 15.011 9.40169 14.8446C9.2378 14.6781 9.15586 14.4794 9.15586 14.2485C9.15586 14.0176 9.23635 13.8194 9.39732 13.654C9.55829 13.4885 9.75773 13.4058 9.99565 13.4058C10.2336 13.4058 10.4345 13.4863 10.5984 13.6473C10.7622 13.8083 10.8442 14.0077 10.8442 14.2456C10.8442 14.4726 10.7637 14.6708 10.6027 14.8402C10.4418 15.0095 10.2423 15.0942 10.0044 15.0942ZM6.7544 15.0942C6.51648 15.0942 6.31558 15.011 6.15169 14.8446C5.9878 14.6781 5.90586 14.4794 5.90586 14.2485C5.90586 14.0176 5.98635 13.8194 6.14732 13.654C6.30829 13.4885 6.50773 13.4058 6.74565 13.4058C6.98357 13.4058 7.18447 13.4863 7.34836 13.6473C7.51225 13.8083 7.59419 14.0077 7.59419 14.2456C7.59419 14.4726 7.51371 14.6708 7.35273 14.8402C7.19176 15.0095 6.99232 15.0942 6.7544 15.0942ZM13.2544 15.0942C13.0275 15.0942 12.8293 15.011 12.6598 14.8446C12.4905 14.6781 12.4059 14.4794 12.4059 14.2485C12.4059 14.0176 12.4891 13.8194 12.6554 13.654C12.822 13.4885 13.0207 13.4058 13.2515 13.4058C13.4825 13.4058 13.6807 13.4863 13.8461 13.6473C14.0115 13.8083 14.0942 14.0077 14.0942 14.2456C14.0942 14.4726 14.0137 14.6708 13.8527 14.8402C13.6918 15.0095 13.4923 15.0942 13.2544 15.0942Z" fill="#1C384A" fill-opacity="0.55"/>
</svg>
