<svg width="28" height="28" viewBox="0 0 28 28" fill="none" xmlns="http://www.w3.org/2000/svg">
<path fill-rule="evenodd" clip-rule="evenodd" d="M13.2501 14.1893V2H14.7501V14.1893L19.4697 9.46967L20.5304 10.5303L14.5304 16.5303H13.4697L6.96973 10.0303L8.03039 8.96967L13.2501 14.1893Z" fill="#FF4D39"/>
<path fill-rule="evenodd" clip-rule="evenodd" d="M6.75 21.4998L6.75 21.5L6.75 21.5002C6.74997 21.5034 6.74974 21.5315 6.78998 21.593C6.83445 21.6609 6.92074 21.7564 7.07436 21.8699C7.38554 22.0998 7.88377 22.3384 8.56685 22.5519C9.92409 22.976 11.8451 23.25 14 23.25C16.1549 23.25 18.0759 22.976 19.4331 22.5519C20.1162 22.3384 20.6145 22.0998 20.9256 21.8699C21.0793 21.7564 21.1655 21.6609 21.21 21.593C21.2503 21.5315 21.25 21.5034 21.25 21.5002L21.25 21.5L21.25 21.4998C21.25 21.4966 21.2503 21.4685 21.21 21.407C21.1655 21.3391 21.0793 21.2436 20.9256 21.1301C20.6145 20.9002 20.1162 20.6616 19.4331 20.4481C18.0759 20.024 16.1549 19.75 14 19.75C11.8451 19.75 9.92409 20.024 8.56685 20.4481C7.88377 20.6616 7.38554 20.9002 7.07436 21.1301C6.92074 21.2436 6.83445 21.3391 6.78998 21.407C6.74974 21.4685 6.74997 21.4966 6.75 21.4998ZM8.11944 19.0164C9.65764 18.5357 11.7366 18.25 14 18.25C16.2634 18.25 18.3424 18.5357 19.8806 19.0164C20.6452 19.2553 21.3185 19.5554 21.817 19.9237C22.3008 20.2811 22.75 20.8051 22.75 21.5C22.75 22.1949 22.3008 22.7189 21.817 23.0763C21.3185 23.4446 20.6452 23.7447 19.8806 23.9836C18.3424 24.4643 16.2634 24.75 14 24.75C11.7366 24.75 9.65764 24.4643 8.11944 23.9836C7.35481 23.7447 6.68146 23.4446 6.183 23.0763C5.69922 22.7189 5.25 22.1949 5.25 21.5C5.25 20.8051 5.69922 20.2811 6.183 19.9237C6.68146 19.5554 7.35481 19.2553 8.11944 19.0164Z" fill="#FF4D39"/>
</svg>
