<svg width="28" height="28" viewBox="0 0 28 28" fill="none" xmlns="http://www.w3.org/2000/svg">
<g clip-path="url(#clip0_302_1807)">
<path fill-rule="evenodd" clip-rule="evenodd" d="M17.9909 24.8204C23.4143 22.6163 26.0241 16.433 23.82 11.0095C21.6159 5.58607 15.4325 2.97627 10.0091 5.18037C4.58565 7.38448 1.97585 13.5678 4.17995 18.9913C6.38405 24.4147 12.5674 27.0245 17.9909 24.8204ZM18.518 26.1174C24.6577 23.6222 27.6122 16.6222 25.117 10.4824C22.6218 4.34267 15.6218 1.38818 9.482 3.88339C3.34224 6.3786 0.387758 13.3786 2.88297 19.5184C5.37818 25.6581 12.3782 28.6126 18.518 26.1174Z" fill="#FE73CB"/>
<path fill-rule="evenodd" clip-rule="evenodd" d="M24.4912 18.6713C18.6888 13.8049 9.80651 17.4147 9.04381 24.9491L7.55144 24.7981C8.43542 16.0656 18.73 11.8818 25.4551 17.522L24.4912 18.6713Z" fill="#FE73CB"/>
<path fill-rule="evenodd" clip-rule="evenodd" d="M3.50857 11.3297C9.31098 16.1961 18.1932 12.5863 18.9559 5.05185L20.4483 5.20292C19.5643 13.9354 9.26972 18.1191 2.54467 12.479L3.50857 11.3297Z" fill="#FE73CB"/>
<path fill-rule="evenodd" clip-rule="evenodd" d="M7.90203 6.36348L7.64124 6.21845L8.37031 4.90754L8.63109 5.05258C16.0927 9.20237 19.5949 18.0367 17.0034 26.1718L15.5741 25.7165C17.9489 18.2617 14.7396 10.1662 7.90203 6.36348Z" fill="#FE73CB"/>
</g>
<defs>
<clipPath id="clip0_302_1807">
<rect width="28" height="28" fill="white"/>
</clipPath>
</defs>
</svg>
