<svg width="28" height="28" viewBox="0 0 28 28" fill="none" xmlns="http://www.w3.org/2000/svg">
<rect x="2.75" y="2.75" width="22.5" height="22.5" rx="3.25" stroke="#1C41FA" stroke-width="1.5"/>
<path d="M9.5 11L9.5 19" stroke="#1C41FA" stroke-width="1.5" stroke-linecap="round"/>
<path d="M13.5 19L13.5 11.6373C13.5 11.2983 13.5 11.1289 13.5575 11.0705C13.6072 11.0201 13.6797 10.9996 13.7484 11.0168C13.8279 11.0366 13.9163 11.1812 14.0931 11.4704L18.4069 18.5296C18.5837 18.8188 18.6721 18.9634 18.7516 18.9832C18.8203 19.0004 18.8928 18.9799 18.9425 18.9295C19 18.8711 19 18.7017 19 18.3627L19 11" stroke="#1C41FA" stroke-width="1.5" stroke-linecap="round"/>
<path d="M8.5 7.3C8.5 7.13431 8.63431 7 8.8 7H10.2C10.3657 7 10.5 7.13431 10.5 7.3V8.7C10.5 8.86569 10.3657 9 10.2 9H8.8C8.63431 9 8.5 8.86569 8.5 8.7V7.3Z" fill="#1C41FA"/>
</svg>
