<svg width="28" height="28" viewBox="0 0 28 28" fill="none" xmlns="http://www.w3.org/2000/svg">
<path fill-rule="evenodd" clip-rule="evenodd" d="M7.62141 23.5H20.3787L23.5 20.3787V7.62132L20.3787 4.5H7.62142L4.5 7.62142V20.3786L7.62141 23.5ZM3 20.9999L7.00009 25H21L25 21V7L21 3H7.00009L3 7.00009V20.9999Z" fill="#0551E3"/>
<path fill-rule="evenodd" clip-rule="evenodd" d="M7.62141 23.5H20.3787L23.5 20.3787V7.62132L20.3787 4.5H7.62142L4.5 7.62142V20.3786L7.62141 23.5ZM3 20.9999L7.00009 25H21L25 21V7L21 3H7.00009L3 7.00009V20.9999Z" fill="#0551E3"/>
<path d="M9.56 18.9997V8.43966H8V18.9997H9.56Z" fill="#0551E3"/>
<path d="M11.564 18.9995H13.124V10.9595C13.124 10.5245 13.079 10.1645 12.929 9.81945C12.869 9.68445 12.854 9.60945 12.959 9.56445C13.019 9.53445 13.079 9.60945 13.094 9.65445L17.804 18.9995H20.204V8.43945H18.644V16.4795C18.644 16.9145 18.689 17.2745 18.839 17.6195C18.899 17.7545 18.914 17.8445 18.809 17.8745C18.734 17.8895 18.704 17.8295 18.674 17.7845L13.964 8.43945H11.564V18.9995Z" fill="#0551E3"/>
</svg>
