<svg width="28" height="28" viewBox="0 0 28 28" fill="none" xmlns="http://www.w3.org/2000/svg">
<g clip-path="url(#clip0_802_1865)">
<path fill-rule="evenodd" clip-rule="evenodd" d="M22.4975 8.31797C22.4749 5.64333 21.573 3.89801 20.2524 3.13784C18.9317 2.37767 16.9695 2.47445 14.6454 3.79839C12.3569 5.1021 9.98584 7.47179 8.16208 10.6403C6.33832 13.8088 5.48018 17.0493 5.50238 19.683C5.52492 22.3577 6.42682 24.103 7.74749 24.8632C9.06816 25.6233 11.0303 25.5265 13.3544 24.2026C15.643 22.8989 18.014 20.5292 19.8378 17.3607C21.6615 14.1922 22.5197 10.9517 22.4975 8.31797ZM21.1378 18.109C25.0042 11.3917 24.9428 4.10687 21.0007 1.83781C17.0585 -0.431244 10.7284 3.17474 6.86205 9.892C2.99566 16.6093 3.05706 23.8941 6.9992 26.1632C10.9413 28.4322 17.2714 24.8263 21.1378 18.109Z" fill="#7E39FF"/>
<path fill-rule="evenodd" clip-rule="evenodd" d="M1.11328 7.42227L2.48181 5.16406L17.8275 5.93618L19.0118 6.61995L27.3533 19.5236L26.0819 21.8379L10.3612 21.7153L9.07979 20.9755L1.11328 7.42227ZM2.40643 6.66217L10.3729 20.2154L26.0936 20.338L17.7521 7.43428L2.40643 6.66217Z" fill="#7E39FF"/>
<path fill-rule="evenodd" clip-rule="evenodd" d="M12.5354 10.4709H16.7781L17.4281 11.1209L17.4281 15.3636L16.1281 15.3636V12.6902L11.5808 17.2374L10.6616 16.3182L15.2088 11.7709L12.5354 11.7709L12.5354 10.4709Z" fill="#7E39FF"/>
</g>
<defs>
<clipPath id="clip0_802_1865">
<rect width="28" height="28" fill="white"/>
</clipPath>
</defs>
</svg>
