<svg width="28" height="28" viewBox="0 0 28 28" fill="none" xmlns="http://www.w3.org/2000/svg">
<g clip-path="url(#clip0_802_1865)">
<path d="M20.6764 2.40116C22.3656 3.37346 23.3236 5.48324 23.3475 8.3108C23.3711 11.1207 22.4602 14.5085 20.5745 17.7847C18.6887 21.061 16.2167 23.5503 13.7752 24.9412C11.3182 26.3408 9.01269 26.5721 7.32346 25.5998C5.63423 24.6275 4.67624 22.5178 4.65241 19.6902C4.62872 16.8803 5.53962 13.4925 7.4254 10.2163C9.31117 6.94002 11.7831 4.45069 14.2247 3.05982C16.6817 1.66019 18.9872 1.42885 20.6764 2.40116Z" stroke="#7E39FF" stroke-width="1.3"/>
<path d="M2.40938 7.3084C3.38392 5.62046 5.49496 4.66525 8.32255 4.64515C11.1324 4.62518 14.5191 5.54056 17.7928 7.43066C21.0666 9.32076 23.5526 11.796 24.9403 14.2394C26.3366 16.6982 26.5649 19.004 25.5904 20.692C24.6159 22.3799 22.5048 23.3351 19.6772 23.3552C16.8674 23.3752 13.4807 22.4598 10.207 20.5697C6.93323 18.6796 4.44717 16.2044 3.05953 13.761C1.66314 11.3022 1.43485 8.99635 2.40938 7.3084Z" stroke="#7E39FF" stroke-width="1.3"/>
<path fill-rule="evenodd" clip-rule="evenodd" d="M12.5355 10.4709H16.7782L17.4282 11.1209L17.4282 15.3636L16.1282 15.3636V12.6902L11.5809 17.2374L10.6617 16.3182L15.2089 11.7709L12.5355 11.7709L12.5355 10.4709Z" fill="#7E39FF"/>
</g>
<defs>
<clipPath id="clip0_802_1865">
<rect width="28" height="28" fill="white"/>
</clipPath>
</defs>
</svg>
