<svg width="28" height="28" viewBox="0 0 28 28" fill="none" xmlns="http://www.w3.org/2000/svg">
<path fill-rule="evenodd" clip-rule="evenodd" d="M14 24.6C19.8542 24.6 24.6 19.8542 24.6 14C24.6 8.14578 19.8542 3.4 14 3.4C8.14578 3.4 3.4 8.14578 3.4 14C3.4 19.8542 8.14578 24.6 14 24.6ZM14 26C20.6274 26 26 20.6274 26 14C26 7.37258 20.6274 2 14 2C7.37258 2 2 7.37258 2 14C2 20.6274 7.37258 26 14 26Z" fill="#161E23"/>
<path fill-rule="evenodd" clip-rule="evenodd" d="M17.4699 8.77148L8.18262 13.007L8.3468 14.0544L13.5001 14.5006L14.8221 19.7715L15.8308 19.759L18.1826 9.40068L17.4699 8.77148Z" fill="#161E23"/>
</svg>
